<svg xmlns="http://www.w3.org/2000/svg" width="29" height="25" viewBox="0 0 29 25"><defs><style>.a{fill:none;}.b,.c{stroke:none;}.c{fill:#ef0;}</style></defs><g class="a" transform="translate(29 25) rotate(180)"><path class="b" d="M10.175,7.457a5,5,0,0,1,8.65,0l5.82,10.034A5,5,0,0,1,20.32,25H8.68a5,5,0,0,1-4.325-7.509Z"/><path class="c" d="M 14.5 7.965753555297852 C 14.15361022949219 7.965753555297852 13.2916202545166 8.062862396240234 12.76992988586426 8.962312698364258 L 6.950080871582031 18.99655342102051 C 6.426589965820313 19.89912414550781 6.773609161376953 20.69709396362305 6.947099685668945 20.99828338623047 C 7.120590209960938 21.29947280883789 7.636760711669922 22.00000381469727 8.680139541625977 22.00000381469727 L 20.31986045837402 22.00000381469727 C 21.36323928833008 22.00000381469727 21.87940979003906 21.29947280883789 22.05290031433105 20.99828338623047 C 22.22639083862305 20.69709396362305 22.57341003417969 19.89911270141602 22.04993057250977 18.99655342102051 L 16.23007011413574 8.962322235107422 C 15.7083797454834 8.062862396240234 14.84638977050781 7.965753555297852 14.5 7.965753555297852 M 14.49999618530273 4.965753555297852 C 16.1809024810791 4.965753555297852 17.86180877685547 5.796222686767578 18.82516098022461 7.457162857055664 L 24.64501953125 17.49140357971191 C 26.57834053039551 20.82473373413086 24.17327117919922 25.00000381469727 20.31986045837402 25.00000381469727 L 8.680139541625977 25.00000381469727 C 4.826719284057617 25.00000381469727 2.421659469604492 20.82473373413086 4.35498046875 17.49140357971191 L 10.17484092712402 7.457162857055664 C 11.13818550109863 5.796222686767578 12.81908988952637 4.965753555297852 14.49999618530273 4.965753555297852 Z"/></g></svg>