<svg xmlns="http://www.w3.org/2000/svg" width="25.997" height="41" viewBox="0 0 25.997 41"><defs><style>.a{fill:none;stroke-linecap:round;stroke-linejoin:round;}.b,.c{stroke:none;}.c{fill:rgba(0,0,0,0.5);}</style></defs><g class="a" transform="translate(7.999 8)"><path class="b" d="M6.486,23.236c-.4,2.352-2.571,2.352-2.972,0L.051,2.967C-.2,1.467.53,0,1.538,0H8.462C9.47,0,10.2,1.467,9.949,2.967Z"/><path class="c" d="M 5 25.0000057220459 C 5.64267635345459 25.0000057220459 6.28535270690918 24.41199684143066 6.486247062683105 23.2359790802002 L 9.948647499084473 2.967284679412842 C 10.20488262176514 1.467366933822632 9.469905853271484 1.397705091221724e-05 8.462411880493164 1.397705091221724e-05 L 1.537588238716125 1.397705091221724e-05 C 0.5300823450088501 1.397705091221724e-05 -0.2048823535442352 1.467366933822632 0.05135294049978256 2.967284679412842 L 3.513752937316895 23.2359790802002 C 3.714647054672241 24.41199684143066 4.35732364654541 25.0000057220459 5 25.0000057220459 M 5 33.00000381469727 C 0.3284705877304077 33.00000381469727 -3.525447130203247 29.53882598876953 -4.372011661529541 24.58306121826172 L -7.83441162109375 4.314366817474365 C -8.388882637023926 1.068731665611267 -7.520846843719482 -2.290268421173096 -5.512435436248779 -4.670880317687988 C -3.727517604827881 -6.786574363708496 -1.157882332801819 -7.999986171722412 1.537588238716125 -7.999986171722412 L 8.462411880493164 -7.999986171722412 C 11.15788269042969 -7.999986171722412 13.72751808166504 -6.786574363708496 15.51242351531982 -4.670880317687988 C 17.52084732055664 -2.290256500244141 18.38888168334961 1.068731665611267 17.83441162109375 4.314437389373779 L 14.3720121383667 24.58306121826172 C 13.52544689178467 29.53882598876953 9.671529769897461 33.00000381469727 5 33.00000381469727 Z"/></g></svg>