<svg xmlns="http://www.w3.org/2000/svg" xmlns:xlink="http://www.w3.org/1999/xlink" width="20" height="20" viewBox="0 0 20 20"><defs><style>.a{clip-path:url(#a);}</style><clipPath id="a"><path d="M0,0H20V20H0Z"/></clipPath></defs><g class="a"><path d="M13.333,19.833a.836.836,0,0,0,.833.833H17.5a.836.836,0,0,0,.833-.833V19h-5ZM15.833,4A5.831,5.831,0,0,0,12.5,14.617V16.5a.836.836,0,0,0,.833.833h5a.836.836,0,0,0,.833-.833V14.617A5.831,5.831,0,0,0,15.833,4Zm2.379,9.25-.713.5v1.921H14.167V13.75l-.712-.5a4.17,4.17,0,1,1,4.758,0Z" transform="translate(-5.833 -2.333)"/></g></svg>